
<svg xmlns="http://www.w3.org/2000/svg" version="1.1" xmlns:xlink="http://www.w3.org/1999/xlink" preserveAspectRatio="none" x="0px" y="0px" width="24px" height="24px" viewBox="0 0 24 24">
<defs>
<g id="Layer0_0_FILL">
<path fill="#000000" stroke="none" d="
M 8.9 13.95
Q 8.75 13.6 8.65 13.3 8.6 13.15 8.6 13 8.5 12.65 8.3 12.7 8.1 12.65 8 13 7.95 13.15 7.95 13.25 7.75 13.8 7.5 14.25 7.3 14.55 7.05 14.85 6.85 15.1 6.6 15.35 6.35 15.55 6.05 15.75 5.75 15.95 5.45 16.1 5.1 16.25 4.75 16.35 4.65 16.35 4.55 16.4
L 4.5 16.4
Q 4.25 16.5 4.25 16.65 4.25 16.8 4.5 16.95
L 4.55 16.95
Q 4.75 17 4.95 17.05 5.5 17.25 6 17.55 6.35 17.8 6.7 18.1
L 6.75 18.15
Q 7.05 18.45 7.3 18.8 7.6 19.2 7.75 19.65 7.95 20 8 20.4
L 8 20.45
Q 8.15 20.75 8.3 20.7 8.45 20.75 8.55 20.45
L 8.55 20.4
Q 8.6 20.2 8.7 20 8.85 19.4 9.2 18.9 9.45 18.5 9.75 18.2 10.05 17.9 10.4 17.65 10.8 17.4 11.2 17.2 11.55 17.05 11.95 16.95 12 16.95 12.05 16.95 12.3 16.85 12.25 16.65 12.3 16.5 12.05 16.4
L 12 16.35
Q 11.8 16.35 11.55 16.25 10.95 16.05 10.45 15.7 10.1 15.45 9.8 15.15 9.55 14.9 9.3 14.6 9.1 14.25 8.9 13.95
M 6.2 5.15
Q 5.85 4.9 5.6 4.6 5.3 4.35 5.1 4.05 4.85 3.7 4.7 3.35 4.55 3.05 4.45 2.75 4.4 2.6 4.35 2.45
L 4.35 2.4
Q 4.25 2.05 4.05 2.1 3.9 2.05 3.75 2.4
L 3.75 2.45
Q 3.75 2.55 3.7 2.7 3.55 3.2 3.25 3.7 3.05 4 2.85 4.3 2.6 4.55 2.35 4.75 2.1 5 1.8 5.2 1.55 5.4 1.2 5.55 0.9 5.7 0.55 5.75 0.4 5.8 0.3 5.85
L 0.25 5.85
Q 0 5.95 0.05 6.1 0 6.25 0.25 6.35
L 0.3 6.4
Q 0.5 6.45 0.7 6.5 1.25 6.65 1.8 7 2.15 7.2 2.45 7.5
L 2.45 7.55
Q 2.5 7.55 2.55 7.6 2.85 7.9 3.1 8.25 3.35 8.65 3.55 9.1 3.6 9.25 3.65 9.35 3.75 9.6 3.8 9.85
L 3.8 9.9
Q 3.9 10.15 4.05 10.1 4.2 10.15 4.35 9.9
L 4.35 9.85
Q 4.4 9.65 4.45 9.45 4.45 9.4 4.45 9.35 4.65 8.8 4.95 8.35 5.2 7.95 5.55 7.65 5.85 7.35 6.15 7.1 6.55 6.85 7 6.65 7.35 6.5 7.75 6.4
L 7.8 6.4
Q 8.05 6.3 8 6.1 8.05 5.95 7.8 5.85 7.8 5.8 7.75 5.8 7.55 5.75 7.35 5.7 6.75 5.5 6.2 5.15
M 20.65 11.75
Q 21.35 11.25 22.15 10.9 22.85 10.6 23.6 10.45 23.65 10.45 23.7 10.4 24.15 10.2 24.1 9.9 24.15 9.6 23.75 9.35
L 23.7 9.35
Q 23.65 9.35 23.6 9.35 23.2 9.25 22.85 9.1 21.65 8.75 20.7 8.05 20.05 7.6 19.5 7.05 19 6.55 18.6 5.95 18.15 5.35 17.85 4.75 17.55 4.15 17.35 3.55 17.3 3.25 17.2 3
L 17.2 2.95
Q 17.05 2.3 16.7 2.4 16.35 2.3 16.15 2.95 16.1 2.95 16.1 3 16.05 3.2 16 3.45 15.7 4.45 15.15 5.35 14.8 5.95 14.35 6.45 13.95 6.95 13.5 7.35 13 7.8 12.45 8.15 11.9 8.55 11.3 8.8 10.7 9.1 10.05 9.25 9.85 9.3 9.6 9.35
L 9.55 9.35 9.55 9.4
Q 9.05 9.6 9.1 9.85 9.05 10.15 9.55 10.4
L 9.6 10.4
Q 10 10.5 10.35 10.6 11.45 10.9 12.35 11.55 13.05 11.95 13.65 12.55 13.7 12.6 13.8 12.65 14.35 13.2 14.8 13.9 15.35 14.65 15.7 15.45 16 16.15 16.15 16.9 16.15 16.95 16.15 17 16.35 17.5 16.65 17.4 16.95 17.5 17.15 17 17.2 16.95 17.2 16.9 17.25 16.5 17.4 16.1 17.75 15 18.4 14.05 18.85 13.35 19.4 12.8 20 12.2 20.65 11.75 Z"/>
</g>
</defs>

<g transform="matrix( 1, 0, 0, 1, 0,0) ">
<use xlink:href="#Layer0_0_FILL"/>
</g>
</svg>
